<mxfile host="app.diagrams.net" agent="Mozilla/5.0 (Windows NT 10.0; Win64; x64) AppleWebKit/537.36 (KHTML, like Gecko) Chrome/131.0.0.0 Safari/537.36 Edg/131.0.0.0" version="25.0.3">
  <diagram name="Страница — 1" id="pRWahHEi-OPrZdGgaUrp">
    <mxGraphModel dx="655" dy="381" grid="1" gridSize="10" guides="1" tooltips="1" connect="1" arrows="1" fold="1" page="1" pageScale="1" pageWidth="1654" pageHeight="2336" math="0" shadow="0">
      <root>
        <mxCell id="0" />
        <mxCell id="1" parent="0" />
        <mxCell id="l0p19rmeTt-WrVua2otp-3" value="{&#xa;  &quot;drawio&quot;: {&#xa;    &quot;elements&quot;: [&#xa;      {&#xa;        &quot;type&quot;: &quot;participant&quot;,&#xa;        &quot;name&quot;: &quot;Client&quot;,&#xa;        &quot;id&quot;: &quot;participant_client&quot;&#xa;      },&#xa;      {&#xa;        &quot;type&quot;: &quot;participant&quot;,&#xa;        &quot;name&quot;: &quot;System&quot;,&#xa;        &quot;id&quot;: &quot;participant_system&quot;&#xa;      },&#xa;      {&#xa;        &quot;type&quot;: &quot;participant&quot;,&#xa;        &quot;name&quot;: &quot;Administrator&quot;,&#xa;        &quot;id&quot;: &quot;participant_admin&quot;&#xa;      },&#xa;      {&#xa;        &quot;type&quot;: &quot;message&quot;,&#xa;        &quot;from&quot;: &quot;participant_client&quot;,&#xa;        &quot;to&quot;: &quot;participant_system&quot;,&#xa;        &quot;label&quot;: &quot;SubmitApplication&quot;,&#xa;        &quot;type&quot;: &quot;request&quot;&#xa;      },&#xa;      {&#xa;        &quot;type&quot;: &quot;message&quot;,&#xa;        &quot;from&quot;: &quot;participant_system&quot;,&#xa;        &quot;to&quot;: &quot;participant_admin&quot;,&#xa;        &quot;label&quot;: &quot;NotifyNewApplication&quot;,&#xa;        &quot;type&quot;: &quot;notification&quot;&#xa;      },&#xa;      {&#xa;        &quot;type&quot;: &quot;message&quot;,&#xa;        &quot;from&quot;: &quot;participant_admin&quot;,&#xa;        &quot;to&quot;: &quot;participant_system&quot;,&#xa;        &quot;label&quot;: &quot;SelectRoom&quot;,&#xa;        &quot;type&quot;: &quot;response&quot;&#xa;      },&#xa;      {&#xa;        &quot;type&quot;: &quot;message&quot;,&#xa;        &quot;from&quot;: &quot;participant_system&quot;,&#xa;        &quot;to&quot;: &quot;participant_client&quot;,&#xa;        &quot;label&quot;: &quot;GenerateInvoice&quot;,&#xa;        &quot;type&quot;: &quot;response&quot;&#xa;      },&#xa;      {&#xa;        &quot;type&quot;: &quot;message&quot;,&#xa;        &quot;from&quot;: &quot;participant_client&quot;,&#xa;        &quot;to&quot;: &quot;participant_system&quot;,&#xa;        &quot;label&quot;: &quot;ConfirmBooking&quot;,&#xa;        &quot;type&quot;: &quot;request&quot;&#xa;      },&#xa;      {&#xa;        &quot;type&quot;: &quot;message&quot;,&#xa;        &quot;from&quot;: &quot;participant_system&quot;,&#xa;        &quot;to&quot;: &quot;participant_admin&quot;,&#xa;        &quot;label&quot;: &quot;FinalizeBooking&quot;,&#xa;        &quot;type&quot;: &quot;notification&quot;&#xa;      }&#xa;    ]&#xa;  }&#xa;}" style="text;whiteSpace=wrap;" vertex="1" parent="1">
          <mxGeometry x="540" y="480" width="230" height="930" as="geometry" />
        </mxCell>
      </root>
    </mxGraphModel>
  </diagram>
</mxfile>
